# xmcd
#
# Track frame offsets:
#	150
#	11039
#	26454
#	38631
#	50075
#	67722
#	82507
#	93628
#	109091
#	120688
#	136450
#
# Disc length: 1997 seconds
#
# Revision: 0
# Processed by: cddbd v1.4PL0 Copyright (c) Steve Scherf et al.
# Submitted via: EasyCDDAExtractor 4.6.9.1
#
DISCID=8307cb0b
DTITLE=Alan Jackson - When Somebody Loves You
DYEAR=2000
DGENRE=Country
TTITLE0=Meat And Potato Man
TTITLE1=When Somebody Loves You
TTITLE2=The Thrill Is Back
TTITLE3=www.Memory
TTITLE4=Where I Come From
TTITLE5=I Still Love You
TTITLE6=Life Of Love
TTITLE7=A Love Like That
TTITLE8=It's Allright To Be A Redneck
TTITLE9=Maybe I Should Stay Here
TTITLE10=Three Minute Positive Not Too Country (Up-Tempo Love Song)
EXTD=
EXTT0=
EXTT1=
EXTT2=
EXTT3=
EXTT4=
EXTT5=
EXTT6=
EXTT7=
EXTT8=
EXTT9=
EXTT10=
PLAYORDER=
